<svg fill="none" xmlns="http://www.w3.org/2000/svg" viewBox="0 0 179 57"><g fill="#F5F5F5"><path d="M85.5553 27.0582c-1.059-.5126-2.4116-.7723-4.017-.7723h-4.5681c-1.2171 0-2.1903-.3387-2.8858-.9913l-.0339-.0338c-.6796-.7158-1.0071-1.522-1.0071-2.4636s.3387-1.8109 1.0071-2.5155c.6729-.7158 1.5965-1.0771 2.7345-1.0771h11.2407v-2.4409H76.3673c-1.2668 0-2.3552.2935-3.3284.8919-.9732.569-1.7093 1.3029-2.2468 2.2377-.5374.9371-.8038 1.9284-.8038 3.0394 0 1.3029.2777 2.4071.8309 3.2877.5939.8965 1.382 1.5671 2.4049 2.0571 1.0635.4517 2.3258.682 3.7461.682h4.8051c.8084 0 1.5288.1851 2.1384.5532.6233.3319 1.0862.8061 1.3932 1.409.3004.5645.4404 1.1381.4404 1.811s-.1649 1.3481-.4923 1.9623c-.3274.6209-.8309 1.138-1.488 1.5445-.6165.3658-1.3707.5464-2.2242.5464H70.7267v2.4365h11.3309c1.3571 0 2.5019-.3049 3.5022-.9303 1.041-.6323 1.8223-1.4204 2.3936-2.4252.578-1.0319.8535-2.1023.8535-3.2765 0-1.3638-.289-2.5312-.849-3.4571-.5261-.9122-1.3142-1.5964-2.4003-2.0796l-.0068.0045zm26.8397-9.2714c-1.754-1.05-3.814-1.5851-6.117-1.5851s-4.358.5351-6.124 1.5896c-1.7611 1.0207-3.1746 2.4478-4.2043 4.2407-1.0297 1.7545-1.5513 3.7619-1.5513 5.9613 0 2.1993.5216 4.2293 1.5513 6.0109 1.0297 1.7591 2.4455 3.1862 4.2043 4.2407 1.68.9822 3.645 1.4993 5.831 1.54h.293c2.303.0045 4.358-.5081 6.117-1.5332 1.795-1.0546 3.209-2.4817 4.211-4.2339 1.03-1.7884 1.552-3.8116 1.552-6.0155s-.522-4.2632-1.552-6.0177c-1.002-1.7546-2.416-3.1636-4.211-4.1887zM115.051 28c0 1.7365-.368 3.3329-1.098 4.7488-.729 1.3932-1.759 2.5154-3.055 3.3441-1.292.8242-2.893 1.2578-4.624 1.2578-1.732 0-3.284-.4223-4.625-1.2578-1.296-.8287-2.3257-1.9554-3.0619-3.3487-.7248-1.409-1.0974-3.0054-1.0974-4.7419 0-1.7364.3681-3.3148 1.0974-4.6968.7294-1.4271 1.7659-2.5719 3.0689-3.4006 1.334-.8355 2.892-1.251 4.618-1.251 1.725 0 3.31.4223 4.624 1.2578 1.303.8354 2.333 1.9735 3.062 3.3893.725 1.3865 1.097 2.9649 1.097 4.7036h-.006zm25.763-10.5225c-1.551-.84-3.378-1.269-5.439-1.269-2.062 0-3.866.429-5.451 1.2803-1.59.8174-2.807 1.9465-3.719 3.4345-.872 1.4768-1.314 3.2313-1.314 5.2162v13.0922h3.057V26.1846c0-1.5332.346-2.8813 1.025-3.999.702-1.1381 1.63-2.0232 2.757-2.6397 1.143-.6029 2.367-.9077 3.645-.9077s2.49.3048 3.599.9077c1.149.6097 2.078 1.4949 2.762 2.6442.707 1.1155 1.063 2.4523 1.063 3.9855v13.0471h3.062V26.1304c0-1.978-.458-3.7393-1.359-5.2161-.883-1.4948-2.089-2.6171-3.685-3.4458l-.005.0068zm16.191-.7158h-3.103v22.4655h3.103zm14.171 3.6423c1.364-.7949 2.908-1.2013 4.602-1.2013h2.321v-2.441h-2.179c-2.337 0-4.455.5081-6.277 1.5061-1.822.9936-3.283 2.362-4.347 4.06-1.052 1.6575-1.585 3.5633-1.585 5.6678s.533 4.0193 1.585 5.7129c1.059 1.6687 2.525 3.0168 4.347 4.0148 1.596.8671 4.721 1.5062 6.119 1.5062h2.337v-2.441h-2.321c-1.687 0-3.238-.3884-4.606-1.1561-1.326-.7949-2.405-1.872-3.205-3.1975-.763-1.33-1.153-2.8248-1.153-4.4438 0-1.6191.39-3.1184 1.16-4.4484.793-1.3187 1.874-2.38 3.204-3.141v.0068zM35.5379 35.0248C24.6296 38.2 15.606 42.8312 9.9576 48.2576l-.24937.2408c1.50197 1.3776 3.14897 2.6096 4.92927 3.6568l.3828-.4536c1.5426-1.8256 3.1954-3.5896 4.9177-5.2528 4.622-4.4632 9.9108-8.3272 15.6057-11.4296z"/><path d="M35.5379 35.0248C24.6296 38.2 15.606 42.8312 9.9576 48.2576l-.24937.2408c1.50197 1.3776 3.14897 2.6096 4.92927 3.6568l.3828-.4536c1.5426-1.8256 3.1954-3.5896 4.9177-5.2528 4.622-4.4632 9.9108-8.3272 15.6057-11.4296zM.78906 30.3207C1.224 35.9823 3.3929 41.1735 6.79703 45.3959l.15658-.1512c3.49689-3.3432 8.04929-6.384 13.54109-9.0328 4.8134-2.324 10.34-4.3176 16.2958-5.8912z"/><path d="M.78906 30.3207C1.224 35.9823 3.3929 41.1735 6.79703 45.3959l.15658-.1512c3.49689-3.3432 8.04929-6.384 13.54109-9.0328 4.8134-2.324 10.34-4.3176 16.2958-5.8912zM22.9884 7.05273c9.76 9.42477 22.0427 15.65757 35.5143 18.02077C56.8789 11.1015 44.6078.23193 29.6981.23193c-3.9377 0-7.6898.7616-11.1171 2.1336 1.3918 1.624 2.8764 3.2032 4.4074 4.6872"/><path d="M22.9884 7.05273c9.76 9.42477 22.0427 15.65757 35.5143 18.02077C56.8789 11.1015 44.6078.23193 29.6981.23193c-3.9377 0-7.6898.7616-11.1171 2.1336 1.3918 1.624 2.8764 3.2032 4.4074 4.6872M9.9576 8.20635C15.606 13.6384 24.6296 18.264 35.5379 21.4448c-5.6949-3.108-10.9837-6.9664-15.6057-11.4296-1.7165-1.65765-3.3693-3.42165-4.9177-5.25285l-.3827-.4536c-1.7804 1.0472-3.4274 2.2792-4.92357 3.6568z"/><path d="M9.9576 8.20635C15.606 13.6384 24.6296 18.264 35.5379 21.4448c-5.6949-3.108-10.9837-6.9664-15.6057-11.4296-1.7165-1.65765-3.3693-3.42165-4.9177-5.25285l-.3827-.4536c-1.7804 1.0472-3.4274 2.2792-4.92357 3.6568zM22.9884 49.4111c-1.5368 1.484-3.0214 3.0632-4.4074 4.6872 3.4215 1.372 7.1794 2.1336 11.1171 2.1336 14.9097 0 27.1808-10.8696 28.8104-24.8472-13.4716 2.3632-25.7543 8.596-35.5143 18.0208z"/><path d="M22.9884 49.4111c-1.5368 1.484-3.0214 3.0632-4.4074 4.6872 3.4215 1.372 7.1794 2.1336 11.1171 2.1336 14.9097 0 27.1808-10.8696 28.8104-24.8472-13.4716 2.3632-25.7543 8.596-35.5143 18.0208zm-2.4937-29.1592c-5.4918-2.6488-10.0442-5.6896-13.54109-9.0328l-.15658-.1512C3.3929 15.2903 1.224 20.4815.78906 26.1431H36.7847c-5.9558-1.5736-11.4766-3.5672-16.2958-5.8968z"/><path d="M20.4947 20.2519c-5.4918-2.6488-10.0442-5.6896-13.54109-9.0328l-.15658-.1512C3.3929 15.2903 1.224 20.4815.78906 26.1431H36.7847c-5.9558-1.5736-11.4766-3.5672-16.2958-5.8968z"/></g></svg>